<svg width="64" height="86" viewBox="0 0 64 86" fill="none" xmlns="http://www.w3.org/2000/svg">
<path d="M18.2857 24.8594V18.1406C18.2857 17.032 19.0571 16.125 20 16.125H25.7143C26.6571 16.125 27.4286 17.032 27.4286 18.1406V24.8594C27.4286 25.968 26.6571 26.875 25.7143 26.875H20C19.0571 26.875 18.2857 25.968 18.2857 24.8594ZM38.2857 26.875H44C44.9429 26.875 45.7143 25.968 45.7143 24.8594V18.1406C45.7143 17.032 44.9429 16.125 44 16.125H38.2857C37.3429 16.125 36.5714 17.032 36.5714 18.1406V24.8594C36.5714 25.968 37.3429 26.875 38.2857 26.875ZM20 43H25.7143C26.6571 43 27.4286 42.093 27.4286 40.9844V34.2656C27.4286 33.157 26.6571 32.25 25.7143 32.25H20C19.0571 32.25 18.2857 33.157 18.2857 34.2656V40.9844C18.2857 42.093 19.0571 43 20 43ZM38.2857 43H44C44.9429 43 45.7143 42.093 45.7143 40.9844V34.2656C45.7143 33.157 44.9429 32.25 44 32.25H38.2857C37.3429 32.25 36.5714 33.157 36.5714 34.2656V40.9844C36.5714 42.093 37.3429 43 38.2857 43ZM27.4286 57.1094V50.3906C27.4286 49.282 26.6571 48.375 25.7143 48.375H20C19.0571 48.375 18.2857 49.282 18.2857 50.3906V57.1094C18.2857 58.218 19.0571 59.125 20 59.125H25.7143C26.6571 59.125 27.4286 58.218 27.4286 57.1094ZM38.2857 59.125H44C44.9429 59.125 45.7143 58.218 45.7143 57.1094V50.3906C45.7143 49.282 44.9429 48.375 44 48.375H38.2857C37.3429 48.375 36.5714 49.282 36.5714 50.3906V57.1094C36.5714 58.218 37.3429 59.125 38.2857 59.125ZM64 79.9531V86H0V79.9531C0 78.8445 0.771429 77.9375 1.71429 77.9375H4.5V4.03125C4.5 1.79727 6.02857 0 7.92857 0H56.0714C57.9714 0 59.5 1.79727 59.5 4.03125V77.9375H62.2857C63.2286 77.9375 64 78.8445 64 79.9531ZM11.3571 77.7695H27.4286V66.5156C27.4286 65.407 28.2 64.5 29.1429 64.5H34.8571C35.8 64.5 36.5714 65.407 36.5714 66.5156V77.7695H52.6429V8.23047L11.4286 8.0625L11.3571 77.7695Z" fill="#CCCCCC"/>
</svg>
