<svg width="78" height="84" viewBox="0 0 78 84" fill="none" xmlns="http://www.w3.org/2000/svg">
<path d="M72.0967 41.4257L42.6638 9.74528L40.691 7.62067C40.2415 7.13977 39.6336 6.86987 39 6.86987C38.3664 6.86987 37.7585 7.13977 37.309 7.62067L5.90329 41.4257C5.44269 41.9198 5.07867 42.5083 4.83271 43.1564C4.58676 43.8045 4.46386 44.4991 4.47126 45.1992C4.50173 48.0867 6.73357 50.3918 9.41482 50.3918H12.6521V77.1093H65.3478V50.3918H68.6537C69.9562 50.3918 71.1826 49.8421 72.1043 48.8496C72.5581 48.3624 72.9177 47.7831 73.1622 47.1452C73.4067 46.5074 73.5313 45.8236 73.5287 45.1336C73.5287 43.739 73.0183 42.4183 72.0967 41.4257V41.4257ZM43.2656 71.2031H34.7343V54.4687H43.2656V71.2031ZM59.8635 44.4855V71.2031H48.1406V52.5C48.1406 50.6871 46.7771 49.2187 45.0937 49.2187H32.9062C31.2228 49.2187 29.8593 50.6871 29.8593 52.5V71.2031H18.1365V44.4855H10.824L39.0076 14.1586L40.7672 16.0535L67.1836 44.4855H59.8635Z" fill="#CCCCCC"/>
</svg>
