<svg width="14" height="10" viewBox="0 0 14 10" fill="none" xmlns="http://www.w3.org/2000/svg">
<path d="M8.21278 0.625C8.30541 0.625002 8.39564 0.646002 8.47049 0.684977C8.54534 0.723951 8.60094 0.778888 8.62928 0.841875L9.11053 1.91C9.31266 1.98062 9.50603 2.06 9.69066 2.14937L11.2272 1.91313C11.3178 1.89931 11.4121 1.90639 11.4967 1.93335C11.5813 1.9603 11.6518 2.00574 11.6979 2.06313L12.9107 3.5625C12.957 3.61985 12.9766 3.68622 12.9667 3.75204C12.9568 3.81787 12.9179 3.87974 12.8555 3.92875L11.8012 4.76C11.8165 4.9194 11.8165 5.07936 11.8012 5.23875L12.8555 6.07125C12.9179 6.12026 12.9568 6.18213 12.9667 6.24796C12.9766 6.31378 12.957 6.38015 12.9107 6.4375L11.6979 7.9375C11.6517 7.99477 11.5812 8.04008 11.4966 8.06692C11.412 8.09376 11.3177 8.10075 11.2272 8.08688L9.69066 7.85062C9.50691 7.93937 9.31266 8.01938 9.11141 8.09L8.62928 9.15812C8.60094 9.22111 8.54534 9.27605 8.47049 9.31502C8.39564 9.354 8.30541 9.375 8.21278 9.375H5.78728C5.69466 9.375 5.60442 9.354 5.52957 9.31502C5.45473 9.27605 5.39913 9.22111 5.37078 9.15812L4.89041 8.09062C4.68883 8.02022 4.49439 7.93981 4.30853 7.85L2.77291 8.08688C2.68232 8.10069 2.58792 8.09361 2.50332 8.06665C2.41872 8.0397 2.34829 7.99426 2.30216 7.93688L1.08941 6.4375C1.0431 6.38015 1.02348 6.31378 1.03339 6.24796C1.0433 6.18213 1.08222 6.12026 1.14453 6.07125L2.19891 5.23875C2.18364 5.07977 2.18364 4.92023 2.19891 4.76125L1.14453 3.92875C1.08222 3.87974 1.0433 3.81787 1.03339 3.75204C1.02348 3.68622 1.0431 3.61985 1.08941 3.5625L2.30216 2.0625C2.34841 2.00523 2.41891 1.95992 2.50349 1.93308C2.58808 1.90624 2.68241 1.89925 2.77291 1.91313L4.30853 2.15C4.49403 2.06063 4.68828 1.98 4.89041 1.90938L5.37166 0.841875C5.39991 0.77909 5.45524 0.724299 5.52974 0.685344C5.60424 0.646388 5.69408 0.625266 5.78641 0.625H8.21191H8.21278ZM7.89253 1.25H6.10753L5.61053 2.35437L5.27541 2.47125C5.11066 2.52884 4.95162 2.59441 4.79941 2.6675L4.48966 2.8175L2.90066 2.5725L2.00816 3.6775L3.09753 4.53875L3.07128 4.80375C3.05871 4.93443 3.05871 5.06557 3.07128 5.19625L3.09753 5.46125L2.00641 6.3225L2.89978 7.4275L4.48878 7.18313L4.79853 7.3325C4.95075 7.40559 5.10979 7.47116 5.27453 7.52875L5.60966 7.64562L6.10753 8.75H7.89428L8.39303 7.645L8.72728 7.52875C8.89185 7.4713 9.05061 7.40572 9.20241 7.3325L9.51128 7.18313L11.1012 7.4275L11.9937 6.3225L10.9034 5.46125L10.9297 5.19625C10.9423 5.06536 10.9423 4.93401 10.9297 4.80312L10.9034 4.53813L11.9945 3.6775L11.1012 2.5725L9.51128 2.81625L9.20241 2.6675C9.05063 2.59426 8.89186 2.52868 8.72728 2.47125L8.39303 2.355L7.89341 1.25H7.89253ZM7.00003 3.125C7.69623 3.125 8.36391 3.32254 8.85619 3.67417C9.34847 4.02581 9.62503 4.50272 9.62503 5C9.62503 5.49728 9.34847 5.97419 8.85619 6.32583C8.36391 6.67746 7.69623 6.875 7.00003 6.875C6.30384 6.875 5.63616 6.67746 5.14388 6.32583C4.6516 5.97419 4.37503 5.49728 4.37503 5C4.37503 4.50272 4.6516 4.02581 5.14388 3.67417C5.63616 3.32254 6.30384 3.125 7.00003 3.125V3.125ZM7.00003 3.75C6.5359 3.75 6.09079 3.8817 5.7626 4.11612C5.43441 4.35054 5.25003 4.66848 5.25003 5C5.25003 5.33152 5.43441 5.64946 5.7626 5.88388C6.09079 6.1183 6.5359 6.25 7.00003 6.25C7.46416 6.25 7.90928 6.1183 8.23747 5.88388C8.56566 5.64946 8.75003 5.33152 8.75003 5C8.75003 4.66848 8.56566 4.35054 8.23747 4.11612C7.90928 3.8817 7.46416 3.75 7.00003 3.75V3.75Z" fill="#CED4DA"/>
</svg>
