<svg width="36" height="36" viewBox="0 0 36 36" fill="none" xmlns="http://www.w3.org/2000/svg">
<path d="M27.19 34C26.7481 33.9996 26.3163 33.8673 25.95 33.62L18.49 28.62C18.4533 28.5946 18.4097 28.581 18.365 28.581C18.3204 28.581 18.2768 28.5946 18.24 28.62L10.78 33.62C10.4054 33.8701 9.96359 34.0004 9.5132 33.9935C9.06282 33.9866 8.62519 33.8428 8.25843 33.5813C7.89167 33.3198 7.61314 32.9529 7.45982 32.5294C7.3065 32.1058 7.28565 31.6457 7.40003 31.21L9.85003 22.57C9.86162 22.5266 9.86021 22.4807 9.84599 22.438C9.83177 22.3954 9.80537 22.3578 9.77003 22.33L2.71003 16.78C2.33837 16.5031 2.06268 16.1169 1.92162 15.6754C1.78055 15.2339 1.78119 14.7594 1.92344 14.3183C2.06569 13.8772 2.34242 13.4917 2.71483 13.2158C3.08723 12.94 3.53664 12.7876 4.00003 12.78L13 12.44C13.0443 12.4369 13.0867 12.4212 13.1222 12.3945C13.1577 12.3679 13.1847 12.3316 13.2 12.29L16.3 3.86C16.4563 3.43263 16.7401 3.06361 17.113 2.80289C17.486 2.54217 17.93 2.40234 18.385 2.40234C18.8401 2.40234 19.2841 2.54217 19.657 2.80289C20.03 3.06361 20.3138 3.43263 20.47 3.86L23.57 12.29C23.5854 12.3316 23.6124 12.3679 23.6479 12.3945C23.6834 12.4212 23.7258 12.4369 23.77 12.44L32.77 12.78C33.2334 12.7876 33.6828 12.94 34.0552 13.2158C34.4276 13.4917 34.7044 13.8772 34.8466 14.3183C34.9889 14.7594 34.9895 15.2339 34.8484 15.6754C34.7074 16.1169 34.4317 16.5031 34.06 16.78L27 22.33C26.9636 22.3569 26.9364 22.3944 26.9221 22.4373C26.9078 22.4803 26.9071 22.5266 26.92 22.57L29.37 31.21C29.456 31.5414 29.4646 31.8882 29.395 32.2234C29.3254 32.5586 29.1795 32.8733 28.9687 33.1431C28.7579 33.4129 28.4878 33.6305 28.1794 33.7791C27.8709 33.9277 27.5324 34.0033 27.19 34V34ZM18.37 26.58C18.8129 26.5935 19.2414 26.7399 19.6 27L27.06 32C27.0978 32.0287 27.1439 32.0445 27.1914 32.0448C27.2389 32.0452 27.2852 32.0302 27.3235 32.0021C27.3617 31.974 27.3899 31.9342 27.4037 31.8888C27.4175 31.8433 27.4162 31.7946 27.4 31.75L24.95 23.11C24.8295 22.6862 24.8384 22.236 24.9756 21.8172C25.1128 21.3985 25.372 21.0303 25.72 20.76L32.78 15.21C32.8185 15.1829 32.8474 15.1443 32.8623 15.0996C32.8772 15.055 32.8774 15.0067 32.8628 14.962C32.8483 14.9172 32.8197 14.8783 32.7814 14.8509C32.7431 14.8236 32.6971 14.8092 32.65 14.81L23.65 14.47C23.2093 14.4528 22.7838 14.3048 22.4276 14.0447C22.0714 13.7847 21.8007 13.4245 21.65 13.01L18.55 4.58C18.5361 4.53524 18.5081 4.49611 18.4704 4.46833C18.4326 4.44055 18.3869 4.42557 18.34 4.42557C18.2931 4.42557 18.2475 4.44055 18.2097 4.46833C18.1719 4.49611 18.144 4.53524 18.13 4.58L15.06 13C14.9094 13.4145 14.6387 13.7747 14.2825 14.0347C13.9263 14.2948 13.5007 14.4428 13.06 14.46L4.06003 14.8C4.01297 14.7992 3.96691 14.8136 3.92862 14.8409C3.89032 14.8683 3.8618 14.9072 3.84725 14.952C3.83271 14.9967 3.8329 15.045 3.8478 15.0896C3.8627 15.1343 3.89152 15.1729 3.93003 15.2L11 20.76C11.347 21.0312 11.6054 21.3994 11.7425 21.8179C11.8797 22.2363 11.8892 22.6861 11.77 23.11L9.33003 31.75C9.31547 31.7933 9.3154 31.8401 9.32984 31.8834C9.34427 31.9267 9.37242 31.9641 9.41003 31.99C9.44626 32.021 9.49236 32.038 9.54003 32.038C9.5877 32.038 9.63381 32.021 9.67003 31.99L17.13 26.99C17.4946 26.7482 17.9225 26.6194 18.36 26.62L18.37 26.58Z" fill="#CCCCCC"/>
</svg>
